<?xml version="1.0" encoding="UTF-8"?>
<!-- Generator: visioncortex VTracer 0.6.12 -->
<svg version="1.1" xmlns="http://www.w3.org/2000/svg" width="1024" height="1024">
<path d="M 75.777,333.961 C 74.872,331.676 73.725,329.63 72.5,327.5 C 70.597,324.184 69.195,320.93 67.922,317.316 C 66.504,313.753 64.711,310.386 62.967,306.973 C 60.33,301.763 57.931,296.462 55.562,291.125 C 52.9,285.137 50.168,279.212 47.188,273.375 C 41.927,263.058 37.188,252.495 32.363,241.969 C 24.913,225.738 24.913,225.738 21.562,219.188 C 20.0,216.0 20.0,216.0 20.0,214.0 C 19.34,214.0 18.68,214.0 18.0,214.0 C 17.649,212.824 17.299,211.649 16.938,210.438 C 13.182,199.207 7.376,188.585 2.023,178.047 C 0.66,175.351 -0.64,172.637 -1.898,169.891 C -6.551,159.885 -12.299,149.981 -21.328,143.27 C -21.88,142.851 -22.432,142.432 -23.0,142.0 C -23.0,141.34 -23.0,140.68 -23.0,140.0 C -23.732,139.728 -24.464,139.456 -25.219,139.176 C -27.876,138.052 -30.085,136.755 -32.5,135.188 C -49.893,124.618 -68.875,122.681 -88.562,127.09 C -101.851,130.608 -112.245,137.41 -122.0,147.0 C -122.628,147.615 -123.256,148.23 -123.902,148.863 C -133.368,158.886 -138.883,172.599 -144.562,185.0 C -145.811,187.71 -147.063,190.418 -148.316,193.125 C -148.622,193.787 -148.928,194.448 -149.244,195.13 C -151.844,200.725 -154.589,206.24 -157.368,211.749 C -159.768,216.531 -162.076,221.356 -164.375,226.188 C -164.843,227.169 -165.312,228.151 -165.794,229.163 C -171.026,240.138 -176.227,251.127 -181.418,262.121 C -181.819,262.969 -182.219,263.817 -182.632,264.69 C -183.391,266.296 -184.149,267.902 -184.907,269.509 C -186.607,273.105 -188.333,276.684 -190.121,280.238 C -191.575,283.128 -192.945,286.039 -194.25,289.0 C -195.954,292.79 -197.753,296.511 -199.647,300.21 C -203.611,307.97 -207.267,315.853 -210.812,323.812 C -211.281,324.85 -211.749,325.887 -212.231,326.956 C -220.526,345.766 -221.976,362.803 -214.593,382.176 C -210.715,391.647 -204.878,398.599 -197.0,405.0 C -197.0,405.66 -197.0,406.32 -197.0,407.0 C -196.415,407.273 -195.83,407.547 -195.227,407.828 C -193.06,408.968 -191.315,410.265 -189.375,411.75 C -184.828,414.829 -180.109,416.587 -174.938,418.312 C -174.182,418.567 -173.426,418.821 -172.648,419.083 C -165.051,421.511 -157.622,422.15 -149.691,422.131 C -148.894,422.133 -148.097,422.136 -147.275,422.138 C -144.624,422.144 -141.973,422.143 -139.322,422.142 C -137.412,422.145 -135.503,422.148 -133.593,422.152 C -129.49,422.16 -125.387,422.165 -121.284,422.169 C -114.785,422.175 -108.286,422.191 -101.788,422.21 C -99.559,422.216 -97.329,422.223 -95.1,422.229 C -93.984,422.232 -92.868,422.235 -91.718,422.239 C -76.598,422.281 -61.477,422.314 -46.357,422.326 C -36.145,422.334 -25.934,422.357 -15.722,422.395 C -10.326,422.415 -4.93,422.427 0.466,422.422 C 5.547,422.418 10.627,422.432 15.708,422.459 C 17.563,422.466 19.418,422.467 21.273,422.459 C 37.466,422.402 51.289,424.477 64.5,434.75 C 65.071,435.192 65.642,435.635 66.23,436.091 C 70.383,439.374 73.91,442.713 77.0,447.0 C 77.351,447.464 77.351,447.464 79.125,449.812 C 86.101,461.671 88.304,475.734 85.536,489.271 C 81.218,504.869 71.207,517.545 57.172,525.629 C 54.457,526.928 51.853,528.034 49.0,529.0 C 48.681,529.123 48.681,529.123 47.069,529.743 C 36.997,533.106 26.483,532.428 16.0,532.404 C 13.769,532.41 11.539,532.417 9.309,532.425 C 3.274,532.443 -2.762,532.442 -8.797,532.436 C -13.849,532.433 -18.9,532.439 -23.952,532.445 C -36.561,532.46 -49.17,532.456 -61.778,532.444 C -72.691,532.434 -83.604,532.447 -94.517,532.471 C -105.758,532.495 -116.999,532.505 -128.239,532.498 C -134.536,532.495 -140.832,532.497 -147.129,532.515 C -153.057,532.53 -158.985,532.526 -164.912,532.507 C -167.076,532.504 -169.239,532.507 -171.403,532.517 C -175.32915092803495,532.5347592856178 -179.13088338794606,532.4362363230013 -182.84825429574934,532.1916553955087 Q -426.2544728170783,516.176971857091 -339.41761816194077,333.3619806462203 C -336.30749872384916,326.8143407069628 -333.17072762353695,320.28084668165366 -329.992,313.766 C -329.639,313.041 -329.285,312.316 -328.921,311.569 C -328.741,311.201 -328.741,311.201 -327.833,309.34 C -321.264,295.873 -314.808,282.37 -308.547,268.757 C -304.782,260.601 -300.855,252.541 -296.776,244.538 C -294.507,240.075 -292.332,235.585 -290.25,231.031 C -286.695,223.27 -282.929,215.615 -279.17,207.952 C -272.986,195.338 -266.867,182.703 -261.0,169.938 C -256.83,160.864 -252.507,151.891 -248.006,142.976 C -244.915,136.849 -241.895,130.693 -238.938,124.5 C -238.721,124.046 -238.721,124.046 -237.623,121.751 C -234.977,116.197 -232.357,110.631 -229.755,105.056 C -228.174,101.673 -226.588,98.293 -225.001,94.913 C -224.22,93.245 -223.442,91.577 -222.667,89.906 C -218.002,79.85 -213.097,70.272 -207.0,61.0 C -206.774,60.653 -206.774,60.653 -205.63,58.896 C -199.581,49.795 -192.601,41.818 -185.0,34.0 C -184.524,33.503 -184.048,33.007 -183.557,32.495 C -158.602,6.496 -125.755,-10.875 -90.0,-16.0 C -88.753,-16.183 -87.507,-16.366 -86.223,-16.555 C -56.377,-20.155 -26.703,-13.104 0.0,0.0 C 0.978,0.469 1.957,0.938 2.965,1.422 C 15.836,8.003 27.534,17.112 38.0,27.0 C 39.329,28.13 40.663,29.255 42.0,30.375 C 62.021,47.948 74.693,71.351 85.426,95.305 C 87.452,99.822 89.565,104.276 91.812,108.688 C 95.524,116.0 99.119,123.367 102.688,130.75 C 102.987,131.37 103.287,131.99 103.596,132.629 C 108.616,143.025 113.484,153.485 118.315,163.97 C 121.589,171.045 124.975,178.047 128.5,185.0 C 132.548,192.987 136.383,201.053 140.125,209.188 C 145.112,220.028 150.262,230.779 155.5,241.5 C 161.171,253.111 166.716,264.765 172.117,276.504 C 176.297,285.56 180.629,294.535 185.0,303.5 C 191.159,316.133 197.144,328.834 203.035,341.594 C 208.755,353.979 214.607,366.296 220.747,378.479 C 250.208,437.138 250.208,437.138 243.312,462.625 C 240.042,472.378 235.547,480.106 229.0,488.0 C 228.372,488.83 227.744,489.66 227.098,490.516 C 217.577,501.792 201.61,508.653 187.25,510.875 C 177.64,511.603 167.453,509.215 160.0,503.0 C 154.66,497.686 150.994,491.948 147.625,485.25 C 147.391,484.795 147.391,484.795 146.208,482.491 C 142.648,475.483 139.373,468.363 136.204,461.171 C 133.652,455.386 130.911,449.735 128.032,444.108 C 124.769,437.671 121.852,431.086 118.969,424.473 C 118.61,423.659 118.252,422.846 117.883,422.008 C 117.725,421.645 117.725,421.645 116.926,419.809 C 116.0,418.0 116.0,418.0 114.0,416.0 C 113.354,414.547 112.764,413.068 112.207,411.578 C 109.975,405.828 107.373,400.301 104.688,394.75 C 104.444,394.244 104.444,394.244 103.214,391.683 C 100.632,386.324 98.005,380.992 95.312,375.688 C 92.288,369.712 89.598,363.617 86.92,357.482 C 84.62,352.26 82.05,347.278 79.234,342.312 C 77.787,339.6 76.777,336.86 75.777,333.961 Z" fill="#E8622C" transform="translate(582,246)"/>
<path d="M0 0 C0.66 0 1.32 0 2 0 C6.758 9.271 11.251 18.638 15.562 28.125 C18.408 34.384 21.25 40.625 24.375 46.75 C27.853 53.589 31.085 60.539 34.312 67.5 C34.594 68.108 34.876 68.715 35.166 69.341 C38.926 77.458 42.634 85.597 46.312 93.75 C50.811 103.712 55.524 113.569 60.723 123.188 C62 126 62 126 62 130 C21.41 130 -19.18 130 -61 130 C-56.444 118.61 -51.333 107.482 -45.777 96.547 C-42.739 90.484 -39.894 84.331 -37.025 78.187 C-35.999 75.998 -34.964 73.815 -33.926 71.633 C-30.191 63.772 -26.595 55.881 -23.227 47.855 C-22.221 45.514 -21.164 43.265 -20 41 C-19.416 39.832 -18.832 38.664 -18.23 37.461 C-17.901 36.803 -17.572 36.144 -17.233 35.466 C-16.525 34.051 -15.819 32.635 -15.113 31.219 C-13.559 28.104 -11.997 24.995 -10.398 21.902 C-9.958 21.048 -9.517 20.193 -9.062 19.312 C-8.872 18.95 -8.872 18.95 -7.91 17.113 C-7 15 -7 15 -6.527 12.492 C-5.953 9.779 -5.028 8.11 -3.5 5.812 C-1.024 2.048 -1.024 2.048 0 0 Z " fill="#2E7EA6" transform="translate(511,456)"/>
<path d="M0 0 C-6.333 4.222 -13.248 4.291 -20.615 4.247 C-21.553 4.25 -22.491 4.252 -23.457 4.255 C-26.583 4.26 -29.709 4.252 -32.834 4.243 C-35.082 4.244 -37.33 4.246 -39.577 4.249 C-45.67 4.254 -51.763 4.246 -57.855 4.236 C-64.233 4.227 -70.611 4.229 -76.989 4.229 C-87.697 4.228 -98.405 4.22 -109.113 4.206 C-120.125 4.192 -131.136 4.185 -142.147 4.185 C-142.487 4.185 -142.487 4.185 -144.204 4.185 C-144.881 4.185 -145.558 4.186 -146.256 4.186 C-158.168 4.186 -170.08 4.181 -181.993 4.173 C-187.062 4.169 -192.131 4.167 -197.2 4.167 C-203.167 4.166 -209.135 4.16 -215.102 4.15 C-217.292 4.147 -219.483 4.146 -221.673 4.146 C-224.662 4.147 -227.65 4.141 -230.639 4.134 C-231.073 4.134 -231.073 4.134 -233.269 4.138 C-237.626 4.121 -241.709 3.873 -246 3 C-246 2.67 -246 2.34 -246 2 C-244.849 2.002 -243.698 2.004 -242.512 2.006 C-215.139 2.049 -187.766 2.082 -160.393 2.102 C-157.017 2.105 -153.642 2.107 -150.266 2.11 C-149.93 2.11 -149.93 2.11 -148.23 2.111 C-137.377 2.12 -126.523 2.136 -115.669 2.154 C-104.517 2.173 -93.365 2.184 -82.213 2.188 C-75.955 2.191 -69.698 2.197 -63.44 2.211 C-57.541 2.225 -51.642 2.229 -45.743 2.226 C-43.587 2.227 -41.431 2.231 -39.275 2.238 C-28.704 2.274 -18.43 2.125 -7.98 0.43 C-5.266 0.038 -2.736 -0.08 0 0 Z " fill="#E8622C" transform="translate(631,774)"/>
<path d="M0 0 C5.01 0.892 9.723 2.479 14.551 4.062 C21.11 5.845 27.596 6.148 34.349 6.145 C35.151 6.148 35.952 6.152 36.778 6.155 C39.443 6.166 42.108 6.17 44.773 6.174 C46.693 6.18 48.612 6.187 50.531 6.194 C54.654 6.208 58.777 6.22 62.9 6.23 C69.422 6.245 75.944 6.269 82.466 6.295 C101.009 6.366 119.553 6.426 138.096 6.477 C148.345 6.505 158.593 6.541 168.842 6.583 C175.323 6.61 181.804 6.628 188.284 6.639 C192.318 6.649 196.353 6.666 200.387 6.686 C202.254 6.693 204.121 6.697 205.988 6.698 C208.543 6.699 211.097 6.712 213.651 6.728 C214.385 6.726 215.119 6.723 215.875 6.72 C220.865 6.77 225.195 7.642 230 9 C230 9.33 230 9.66 230 10 C223.848 10.098 223.848 10.098 222 10 C221.67 9.67 221.34 9.34 221 9 C218.483 8.892 215.993 8.849 213.475 8.849 C212.677 8.844 211.88 8.84 211.058 8.836 C208.364 8.823 205.671 8.817 202.977 8.811 C201.054 8.803 199.131 8.794 197.208 8.785 C193.054 8.767 188.9 8.752 184.747 8.74 C178.174 8.719 171.601 8.692 165.028 8.663 C151.061 8.603 137.093 8.551 123.125 8.5 C108.081 8.445 93.038 8.388 77.994 8.322 C71.466 8.294 64.939 8.271 58.411 8.251 C54.336 8.237 50.262 8.22 46.187 8.201 C44.305 8.194 42.423 8.187 40.541 8.183 C14.683 8.122 14.683 8.122 10 5 C7.664 4.447 5.328 4.055 2.961 3.66 C2.314 3.442 1.667 3.224 1 3 C0.67 2.01 0.34 1.02 0 0 Z " fill="#E8622C" transform="translate(398,662)"/>
<path d="M0 0 C0.839 0.126 1.678 0.252 2.542 0.382 C6.196 0.991 8.631 1.546 11.75 3.625 C4.653 3.733 -2.211 3.564 -9.25 2.625 C-9.25 1.965 -9.25 1.305 -9.25 0.625 C-11.959 0.571 -14.666 0.531 -17.375 0.5 C-18.136 0.483 -18.896 0.466 -19.68 0.449 C-24.366 0.409 -27.782 1.122 -32.25 2.625 C-35.308 2.912 -38.367 2.942 -41.438 3 C-48.199 3.221 -53.606 4.054 -59.871 6.77 C-63.734 8.159 -67.188 7.891 -71.25 7.625 C-63.101 2.192 -51.825 0.921 -42.25 -0.375 C-41.036 -0.552 -39.821 -0.728 -38.57 -0.91 C-25.846 -2.466 -12.645 -1.901 0 0 Z " fill="#E8622C" transform="translate(534.25,230.375)"/>
<path d="M0 0 C1.404 4.213 -0.445 6.701 -2.25 10.5 C-10.87 29.477 -11.583 46.044 -4.297 65.62 C-2.911 69.163 -1.347 72.022 1 75 C1 75.66 1 76.32 1 77 C0.01 77 -0.98 77 -2 77 C-2.33 76.01 -2.33 76.01 -4 71 C-4.66 71 -5.32 71 -6 71 C-6.121 70.362 -6.242 69.724 -6.367 69.066 C-6.535 68.24 -6.702 67.414 -6.875 66.562 C-7.037 65.739 -7.2 64.915 -7.367 64.066 C-7.576 63.384 -7.785 62.703 -8 62 C-8.66 61.67 -9.32 61.34 -10 61 C-12.48 53.701 -12.304 45.86 -12.25 38.25 C-12.258 37.153 -12.265 36.056 -12.273 34.926 C-12.243 22.243 -12.243 22.243 -8 18 C-7.307 16.644 -6.664 15.263 -6.055 13.867 C-5.7 13.062 -5.346 12.256 -4.98 11.426 C-4.616 10.584 -4.251 9.742 -3.875 8.875 C-3.689 8.45 -3.689 8.45 -2.746 6.301 C-1.827 4.202 -0.911 2.102 0 0 Z " fill="#E8622C" transform="translate(372,563)"/>
<path d="M0 0 C3.14 3.55 3.134 4.804 4 10 C-36.59 10 -77.18 10 -119 10 C-118.34 8.35 -117.68 6.7 -117 5 C-116.67 6.32 -116.34 7.64 -116 9 C-77.39 8.67 -38.78 8.34 1 8 C0.835 6.68 0.835 6.68 0 0 Z " fill="#EC8A80" transform="translate(569,576)"/>
<path d="M0 0 C0 0.66 0 1.32 0 2 C0.66 2.33 1.32 2.66 2 3 C0.783 2.732 -0.434 2.464 -1.688 2.188 C-2.514 2.008 -3.34 1.829 -4.191 1.645 C-6.125 1.201 -8.05 0.717 -9.965 0.199 C-22.685 -3.119 -34.304 -2.561 -46.953 0.441 C-50 1 -50 1 -53 0 C-52.34 -0.66 -51.68 -1.32 -51 -2 C-49.68 -2 -48.36 -2 -47 -2 C-47 -2.66 -47 -3.32 -47 -4 C-31.057 -6.057 -15.03 -6.239 0 0 Z " fill="#EB7A74" transform="translate(540,373)"/>
<path d="M0 0 C0.99 0 1.98 0 3 0 C3 0.66 3 1.32 3 2 C-12.175 8.529 -23.737 11.962 -40 7 C-40.66 6.34 -41.32 5.68 -42 5 C-37.38 5.33 -37.38 5.33 -14 7 C-13.67 6.01 -13.34 5.02 -13 4 C-10.03 4 -7.06 4 -4 4 C-4 3.34 -4 2.68 -4 2 C-2.68 2 -1.36 2 0 2 C0 1.34 0 0.68 0 0 Z " fill="#E87271" transform="translate(790,747)"/>
<path d="M0 0 C11.512 -0.305 22.841 -0.361 34.25 1.375 C34.669 1.438 34.669 1.438 36.79 1.757 C40.445 2.366 42.881 2.92 46 5 C38.903 5.108 32.039 4.939 25 4 C25 3.34 25 2.68 25 2 C16.75 1.67 8.5 1.34 0 1 C0 0.67 0 0.34 0 0 Z " fill="#E9888A" transform="translate(500,229)"/>
<path d="M0 0 C0.66 0.33 1.32 0.66 2 1 C-2.957 6.267 -8.432 10.685 -14.812 14.125 C-18 16 -18 16 -19.625 18.188 C-21 20 -21 20 -23.688 20.75 C-24.451 20.832 -25.214 20.915 -26 21 C-18.085 12.838 -9.406 6.323 0 0 Z " fill="#E37773" transform="translate(431,252)"/>
<path d="M0 0 C0.33 0 0.66 0 1 0 C1.075 0.753 1.15 1.506 1.227 2.281 C2.069 9.088 3.529 15.156 5.938 21.562 C6.19 22.241 6.443 22.919 6.704 23.617 C8.088 27.162 9.652 30.022 12 33 C12 33.66 12 34.32 12 35 C11.01 35 10.02 35 9 35 C8.34 33.02 7.68 31.04 7 29 C6.34 29 5.68 29 5 29 C4.879 28.362 4.758 27.724 4.633 27.066 C4.465 26.24 4.298 25.414 4.125 24.562 C3.963 23.739 3.8 22.915 3.633 22.066 C3.424 21.384 3.215 20.703 3 20 C2.34 19.67 1.68 19.34 1 19 C-0.473 15.257 -0.111 11.208 -0.062 7.25 C-0.058 6.553 -0.053 5.855 -0.049 5.137 C-0.037 3.424 -0.019 1.712 0 0 Z " fill="#EFA29C" transform="translate(361,605)"/>
</svg>
